<svg xmlns="http://www.w3.org/2000/svg" width="500" height="371.094" viewBox="0 0 500 371.094" xml:space="preserve"><path d="M480.391 80.293c-20.996-20.996-54.688-20.781-75.547.059-13.281 13.281-18.145 31.875-14.551 48.906l-83.652 83.652.996 38.145 40.195-2.891L345 222.168l22.969 5.859L365 202.441l22.266 5.723-2.969-25.859 29.023 5.879 17.734-17.734c17.188 3.73 35.898-.996 49.336-14.414 20.898-20.918 20.977-54.766 0-75.742zm-9.199 26.133c-4.727 4.746-12.227 4.59-16.816 0s-4.648-12.148 0-16.816a11.848 11.848 0 0 1 16.816 0 11.848 11.848 0 0 1 0 16.816zm-98.145 165.058H281.25v-82.031c0-39.961-34.922-72.266-74.219-72.266H83.984c-43.144.001-80.097 37.383-80.078 74.219v150.391c-.059 16.66 11.719 25.371 23.438 25.391 11.738.02 23.438-8.691 23.438-25.391V195.313h15.625v171.875h152.344V195.313h15.625l.156 98.379c-.098 17.051 10.43 24.316 21.328 24.668h117.188c31.953 0 31.953-46.875 0-46.875zM144.57 3.906c-28.184 0-50.586 22.578-50.586 50.586s22.578 50.605 50.586 50.605c27.832 0 50.41-22.422 50.605-50.605.001-28.008-22.597-50.586-50.605-50.586z"/></svg>