<svg width="32" height="32" viewBox="0 0 32 32" xmlns="http://www.w3.org/2000/svg"><path d="M7 16H5a3 3 0 0 0-3 3v10a3 3 0 0 0 3 3h2a3 3 0 0 0 3-3V19a3 3 0 0 0-3-3Zm1 13a1 1 0 0 1-1 1H5a1 1 0 0 1-1-1V19a1 1 0 0 1 1-1h2a1 1 0 0 1 1 1ZM6 9H4a1 1 0 0 0 0 2h1a1 1 0 0 0 2 0v-.18A3 3 0 0 0 6 5a1 1 0 0 1 0-2h2a1 1 0 0 0 0-2H7a1 1 0 0 0-2 0v.18A3 3 0 0 0 6 7a1 1 0 0 1 0 2Zm11 9h-2a3 3 0 0 0-3 3v8a3 3 0 0 0 3 3h2a3 3 0 0 0 3-3v-8a3 3 0 0 0-3-3Zm1 11a1 1 0 0 1-1 1h-2a1 1 0 0 1-1-1v-8a1 1 0 0 1 1-1h2a1 1 0 0 1 1 1Zm9-17h-2a3 3 0 0 0-3 3v14a3 3 0 0 0 3 3h2a3 3 0 0 0 3-3V15a3 3 0 0 0-3-3Zm1 17a1 1 0 0 1-1 1h-2a1 1 0 0 1-1-1V15a1 1 0 0 1 1-1h2a1 1 0 0 1 1 1ZM19 3h-6a1 1 0 0 0 0 2h6a1 1 0 0 0 0-2Zm-2 6a1 1 0 0 0 0-2h-4a1 1 0 0 0 0 2Z" data-name="9. Traffic"/></svg>