<svg width="500" height="500" viewBox="0 0 500 500" xmlns="http://www.w3.org/2000/svg"><path d="m386.391 150.734-58.266-8.093v-33.266A15.625 15.625 0 0 0 312.5 93.75h-250a15.625 15.625 0 0 0-15.625 15.625V312.5A15.625 15.625 0 0 0 62.5 328.125h36.734a54.047 54.047 0 0 0-5.484 23.438 54.688 54.688 0 0 0 109.375 0 54.047 54.047 0 0 0-5.484-23.438h104.688a54.047 54.047 0 0 0-5.454 23.438 54.688 54.688 0 0 0 109.375 0 54.047 54.047 0 0 0-5.484-23.438h52.359a15.625 15.625 0 0 0 15.531-17.375l-9.609-85.469a84.828 84.828 0 0 0-72.656-74.547Zm-4.297 30.953a53.484 53.484 0 0 1 43.687 37.063h-97.656v-44.562ZM78.125 125h218.75v171.875H78.125Zm93.75 226.563a23.438 23.438 0 1 1-23.437-23.438 23.438 23.438 0 0 1 23.437 23.438Zm203.125 0a23.438 23.438 0 1 1-23.437-23.438A23.438 23.438 0 0 1 375 351.563Zm-46.875-54.688V250h102.234l5.266 46.875Z"/></svg>