<svg width="500px" height="500px" viewBox="0 0 500 500" xmlns="http://www.w3.org/2000/svg"><path d="M153.075 181.25L172.85 50H70L27.025 162.5C25.7 166.5 25 170.65 25 175c0 27.6 28.75 50 64.275 50 32.75 0 59.825 -19.1 63.8 -43.75zM250 225c35.5 0 64.275 -22.4 64.275 -50 0 -1.025 -0.075 -2.05 -0.125 -3.025L301.425 50H198.575l-12.75 121.875c-0.05 1.025 -0.1 2.05 -0.1 3.125 0 27.6 28.775 50 64.275 50zm125 26.15V350H125v-98.7c-10.95 3.95 -23 6.2 -35.725 6.2 -4.875 0 -9.6 -0.575 -14.275 -1.225V415c0 19.25 15.725 35 34.95 35H390c19.25 0 35 -15.775 35 -35v-158.7a107.425 107.425 0 0 1 -14.275 1.225A103.875 103.875 0 0 1 375 251.15zM473 162.5L429.975 50h-102.825l19.75 131.05C350.75 205.8 377.825 225 410.725 225 446.225 225 475 202.6 475 175c0 -4.35 -0.7 -8.5 -2 -12.5z"/></svg>