<svg version="1.2" baseProfile="tiny" xmlns="http://www.w3.org/2000/svg" viewBox="0 0 500 500" xml:space="preserve" width="500" height="500"><path d="M113.086 81.836c22.07 0 40.039-17.969 40.039-40.039S135.156 1.758 113.086 1.758 73.047 19.727 73.047 41.797s17.969 40.039 40.039 40.039m284.18-.586c22.461 0 40.625-18.164 40.625-40.625S419.727 0 397.266 0s-40.625 18.164-40.625 40.625 18.164 40.625 40.625 40.625M98.242 309.57c-52.539 0-95.117 42.578-95.117 95.117S45.703 500 98.242 500s95.313-42.578 95.313-95.313c0-52.539-42.774-95.117-95.313-95.117m11.328 155.664v15.234H86.719v-15.234C62.5 462.5 46.875 439.257 46.875 424.218h24.219c0 6.836 5.273 15.82 15.625 17.969v-28.516c-5.273-.977-8.203-1.758-13.867-3.32-14.258-3.906-24.219-16.016-24.219-31.445 0-15.234 14.844-32.422 37.891-35.352v-14.258h22.852v14.258c24.414 3.125 39.258 21.094 39.258 39.063h-23.828c0-7.813-6.641-15.039-15.625-15.82v26.758c6.641 1.367 6.641 1.367 12.695 2.93 22.656 6.25 27.734 20.898 27.734 33.398.39 18.945-14.844 32.031-40.04 35.351"/><path d="M86.719 389.258c-10.156-1.758-12.891-6.25-12.891-10.938 0-5.469 6.836-10.742 12.891-11.523v22.461zm23.047 52.734v-24.023c9.961 1.367 16.406 5.859 16.406 11.914 0 5.469-5.859 11.719-16.406 12.109m-48.828-290.82h15.82l-18.164 67.773h109.375l-18.164-67.773h15.82l18.75 67.773h35.156l-23.047-82.226c-6.055-19.922-25.781-41.016-51.563-41.016H81.055c-25.781 0-45.508 21.094-51.563 41.016L7.031 218.945h35.156l18.751-67.773z"/><path d="M440.625 95.313c19.922 0 36.133 16.211 36.133 36.133v110.938H500v45.508h-47.07v188.281c0 13.086-10.742 23.828-24.023 23.828-13.086 0-23.828-10.742-23.828-23.828V287.892h-15.234v188.281c0 13.086-10.742 23.828-23.828 23.828-13.086 0-23.828-10.742-23.828-23.828V287.892l-339.064-.001v-45.703h339.063V135.547l-75.781 89.844c-16.016 18.359-44.336-4.688-28.32-24.219l78.516-94.531c5.078-5.078 9.57-11.328 28.32-11.328h95.702z"/></svg>